<svg width="452" height="520" viewBox="0 0 452 520" fill="none" xmlns="http://www.w3.org/2000/svg">
<g filter="url(#filter0_d)">
<path d="M428.302 56.9488C441.872 69.1642 430.536 93.843 410.113 104.063C389.689 114.283 366.809 109.929 359.007 94.3391C351.206 78.7488 352.831 51.4461 373.254 41.2262C393.678 31.0063 415.194 45.1497 428.302 56.9488Z" fill="#A93D21"/>
<path d="M402.416 68.279C411.157 77.7671 406.561 93.9293 395.624 99.4021C384.688 104.875 371.209 100.093 365.519 88.7225C359.829 77.3515 365.667 66.8645 376.604 61.3918C387.541 55.919 393.972 59.1143 402.416 68.279Z" fill="#DB8A52"/>
<path d="M23.7906 75.7009C13.3017 90.6461 29.8786 112.158 52.0725 117.542C74.2665 122.927 95.5902 113.558 99.7005 96.616C103.811 79.6743 96.1102 53.4297 73.9162 48.0452C51.7223 42.6607 33.9221 61.265 23.7906 75.7009Z" fill="#A93D21"/>
<path d="M51.5679 80.9448C45.1742 92.1502 53.2743 106.872 65.1591 109.755C77.044 112.639 89.1088 104.959 92.1067 92.6024C95.1045 80.2457 87.0651 71.3333 75.1803 68.4499C63.2954 65.5665 57.7437 70.1214 51.5679 80.9448Z" fill="#DB8A52"/>
<path d="M443.218 303.435C443.218 437.468 369.627 358.39 229.694 384.114C229.332 384.18 228.941 384.18 228.579 384.113C88.6525 358.39 17.475 437.468 17.475 303.435C11.5224 144.478 85.3392 56.1916 224.891 35.495C227.682 35.0811 230.594 35.0952 233.381 35.5312C378.856 58.2884 451.158 146.562 443.218 303.435Z" fill="#C15227"/>
<path d="M257.184 2.39928C251.633 13.2158 248.211 19.4004 246.145 28.8594C258.935 24.7151 264.686 26.8327 274.84 30.9299C263.891 32.4932 257.867 33.5711 247.944 36.928C263.377 35.5904 269.551 36.4487 276.939 40.3434C246.667 46.1089 238.324 44.4812 221.049 42.9262C234.522 20.1088 242.581 12.8477 257.184 2.39928Z" fill="#C15227"/>
<path d="M144.108 231.385C144.108 253.09 129.446 270.684 111.359 270.684C93.2718 270.684 78.6094 253.09 78.6094 231.385C78.6094 209.681 88.9052 200.819 106.992 200.819C125.079 200.819 144.108 209.681 144.108 231.385Z" fill="black"/>
<path d="M87.3346 220.467C87.3346 226.496 93.1996 231.383 100.434 231.383C107.669 231.383 113.534 226.496 113.534 220.467C113.534 214.438 110.188 209.55 102.954 209.55C95.7188 209.55 87.3346 214.438 87.3346 220.467Z" fill="white"/>
<path d="M384.269 231.384C384.269 253.089 369.607 270.683 351.52 270.683C333.433 270.683 318.771 253.089 318.771 231.384C318.771 209.68 339.983 200.818 358.07 200.818C376.157 200.818 384.269 209.68 384.269 231.384Z" fill="black"/>
<path d="M331.871 218.284C331.871 223.107 336.759 227.017 342.788 227.017C348.817 227.017 353.704 223.107 353.704 218.284C353.704 213.46 350.916 209.55 344.887 209.55C338.858 209.55 331.871 213.46 331.871 218.284Z" fill="white"/>
<g filter="url(#filter1_d)">
<path d="M229.26 245.132C119.554 220.658 10.0891 311.159 8.74586 327.451C6.56096 329.634 14.0892 379.85 14.0892 379.85C14.0892 379.85 20.1236 368.933 20.9149 375.822C21.7063 382.711 22.2603 402.261 32.1875 416.966L40.2328 412.599C38.4671 433.205 70.3967 456.265 70.3967 456.265V445.349C70.3967 445.349 96.197 471.623 107.725 480.374C127.347 495.269 141.004 498.911 163.67 506.512C188.603 514.873 229.26 510.848 229.26 510.848V245.132Z" fill="#DB8A52"/>
<path d="M227.088 244.29C336.794 219.816 446.259 310.317 447.602 326.609C449.787 328.792 442.258 379.008 442.258 379.008C442.258 379.008 436.224 368.091 435.433 374.98C434.641 381.869 434.087 401.419 424.16 416.124L416.115 411.757C417.881 432.363 385.951 455.423 385.951 455.423V444.507C385.951 444.507 360.151 470.781 348.622 479.532C329 494.427 315.344 498.069 292.678 505.67C267.744 514.032 227.088 510.006 227.088 510.006V244.29Z" fill="#DB8A52"/>
<path d="M204.142 334.816C151.73 333.251 139.851 321.096 140.463 315.214" stroke="black" stroke-width="6"/>
<path d="M255.926 334.816C308.339 333.251 320.218 321.096 319.606 315.214" stroke="black" stroke-width="6"/>
<path d="M192.83 330.888C208.395 329.971 217.061 330.597 232.429 333.379C231.888 359.868 231.067 374.16 228.931 398.926C211.306 401.412 201.774 400.83 185.163 396.172C187.708 369.639 189.378 355.33 192.83 330.888Z" fill="white"/>
<path d="M265.671 330.519C251.588 329.994 243.761 330.698 229.899 333.411C230.701 356.62 231.612 369.133 233.835 390.802C249.8 392.665 258.41 391.984 273.373 387.605C270.759 364.393 269.081 351.881 265.671 330.519Z" fill="white"/>
</g>
<path d="M232.36 284.177C232.36 284.177 271.568 286.528 270.414 246.226C269.59 217.425 252.753 239.911 230.768 240.54C208.783 241.169 196.099 219.529 196.923 248.33C198.03 287.026 232.36 284.177 232.36 284.177Z" fill="#6B2C1C"/>
</g>
<defs>
<filter id="filter0_d" x="4.34814" y="0" width="447.651" height="519.816" filterUnits="userSpaceOnUse" color-interpolation-filters="sRGB">
<feFlood flood-opacity="0" result="BackgroundImageFix"/>
<feColorMatrix in="SourceAlpha" type="matrix" values="0 0 0 0 0 0 0 0 0 0 0 0 0 0 0 0 0 0 127 0"/>
<feOffset dy="4"/>
<feGaussianBlur stdDeviation="2"/>
<feColorMatrix type="matrix" values="0 0 0 0 0 0 0 0 0 0 0 0 0 0 0 0 0 0 0.25 0"/>
<feBlend mode="normal" in2="BackgroundImageFix" result="effect1_dropShadow"/>
<feBlend mode="normal" in="SourceGraphic" in2="effect1_dropShadow" result="shape"/>
</filter>
<filter id="filter1_d" x="7.34814" y="240.118" width="441.651" height="273.698" filterUnits="userSpaceOnUse" color-interpolation-filters="sRGB">
<feFlood flood-opacity="0" result="BackgroundImageFix"/>
<feColorMatrix in="SourceAlpha" type="matrix" values="0 0 0 0 0 0 0 0 0 0 0 0 0 0 0 0 0 0 127 0"/>
<feOffset dy="1"/>
<feGaussianBlur stdDeviation="0.5"/>
<feColorMatrix type="matrix" values="0 0 0 0 0 0 0 0 0 0 0 0 0 0 0 0 0 0 0.2 0"/>
<feBlend mode="normal" in2="BackgroundImageFix" result="effect1_dropShadow"/>
<feBlend mode="normal" in="SourceGraphic" in2="effect1_dropShadow" result="shape"/>
</filter>
</defs>
</svg>
